<?xml version="1.0" standalone="no"?>
<!DOCTYPE svg PUBLIC "-//W3C//DTD SVG 1.1//EN"
  "http://www.w3.org/Graphics/SVG/1.1/DTD/svg11.dtd">
<svg version="1.1" xmlns="http://www.w3.org/2000/svg" width="3840" height="2160" viewBox="-628.3333333333334 26 1578.6666666666667 888" id="ccdiagram"><defs><style type="text/css">@import url(&#x27;https://fonts.googleapis.com/css?family=Open+Sans:400,700&#x27;);</style></defs><g><g style="pointer-events:none"><g><pattern id="gridPatternMinor" x="0" y="37" width="128" height="74" patternUnits="userSpaceOnUse"><path d="M 0 0 L 128 74" stroke="#eee" stroke-width="1"></path><path d="M 128 0 L 0 74" stroke="#eee" stroke-width="1"></path></pattern><polygon points="161 -430, 1718 470, 161 1370, -1396 470" fill="url(#gridPatternMinor)"></polygon></g></g><g pointer-events=""><g opacity="1"><g id="28d05c4f-61c5-4409-8a2f-8a730ef66e6f"><svg x="-188" y="58" overflow="visible" style="user-select:none"><g fill="#e8e8e8"><polygon points="0 0, 282 163, -65 364, -348 201" stroke="#e8e8e8" stroke-width="40"></polygon></g></svg></g></g><g opacity="1"><g><g><polygon points="-160 93, 32 204, 32 241, -160 352, -224 352, -416 241, -416 204, -224 93" fill="#ffffff" stroke-width="2" stroke="#818181"></polygon><polygon points="-192 111, 0 222, -192 333, -384 222" fill="#e6e7e8" stroke-width="0" stroke="#818181"></polygon></g></g></g><g opacity="1"><g id="cf1f5a1c-e40f-48dd-81b0-5f64ac8d6127"><svg x="192" y="280" overflow="visible" style="user-select:none"><g fill="#e8e8e8"><polygon points="0 0, 283 164, -62 363, -345 199" stroke="#e8e8e8" stroke-width="40"></polygon></g></svg></g></g><g opacity="1"><g><g><polygon points="224 315, 416 426, 416 463, 224 574, 160 574, -32 463, -32 426, 160 315" fill="#ffffff" stroke-width="2" stroke="#818181"></polygon><polygon points="192 333, 384 444, 192 555, 0 444" fill="#e6e7e8" stroke-width="0" stroke="#818181"></polygon></g></g></g><g opacity="1"><g id="f69e184e-f955-4566-ae28-5974e4516fee"><svg x="576" y="500" overflow="visible" style="user-select:none"><g fill="#e8e8e8"><polygon points="0 0, 282 163, -66 364, -348 201" stroke="#e8e8e8" stroke-width="40"></polygon></g></svg></g></g><g opacity="1"><g><g><polygon points="608 537, 800 648, 800 685, 608 796, 544 796, 352 685, 352 648, 544 537" fill="#ffffff" stroke-width="2" stroke="#818181"></polygon><polygon points="576 555, 768 666, 576 777, 384 666" fill="#e6e7e8" stroke-width="0" stroke="#818181"></polygon></g></g></g></g><g style="pointer-events:none"><g><pattern id="gridPatternMajor" x="0" y="37" width="128" height="74" patternUnits="userSpaceOnUse"><path d="M 64 0 L 128 37 64 74 0 37 z" stroke="#54626f" stroke-width="1" fill="none"></path></pattern><polygon points="161 -430, 1718 470, 161 1370, -1396 470" fill="url(#gridPatternMajor)"></polygon></g></g><g pointer-events=""></g><g pointer-events="none"></g><g pointer-events=""></g><g pointer-events=""></g><g pointer-events=""></g><g pointer-events=""></g><g pointer-events=""><g opacity="1"><g id="faa2c966-3305-4b42-8626-4c36ee504d1c" transform="translate(0 0)"><svg x="-480" y="315" overflow="visible" style="user-select:none"><text stroke="#ffffff" stroke-width="4" font-family="Open Sans" y="36.5" font-size="25pt" fill="#f5b720" font-weight="bold" transform="matrix(0.707 0.409 -0.707 0.409 0 0)" xml:space="preserve"><tspan x="8" dy="0">us-east-1a</tspan><tspan x="8" dy="1.1em"></tspan></text><text font-family="Open Sans" y="36.5" font-size="25pt" fill="#f5b720" font-weight="bold" transform="matrix(0.707 0.409 -0.707 0.409 0 0)" xml:space="preserve"><tspan x="8" dy="0">us-east-1a</tspan><tspan x="8" dy="1.1em"></tspan></text></svg></g></g><g opacity="1"><g id="820a22fb-67cc-4eab-a761-cb862f5c7ba2" transform="translate(0 0)"><svg x="-400" y="268" overflow="visible" style="user-select:none"><text stroke="#ffffff" stroke-width="4" font-family="Open Sans" y="36.5" font-size="25pt" fill="#03a9f4" font-weight="bold" transform="matrix(0.707 0.409 -0.707 0.409 0 0)" xml:space="preserve"><tspan x="8" dy="0">subnet-0</tspan></text><text font-family="Open Sans" y="36.5" font-size="25pt" fill="#03a9f4" font-weight="bold" transform="matrix(0.707 0.409 -0.707 0.409 0 0)" xml:space="preserve"><tspan x="8" dy="0">subnet-0</tspan></text></svg></g></g><g opacity="1"><g id="62f85e5b-4cd6-4cc6-9fea-19807cc0ae5f" transform="translate(0 0)"><svg x="-16" y="490" overflow="visible" style="user-select:none"><text stroke="#ffffff" stroke-width="4" font-family="Open Sans" y="36.5" font-size="25pt" fill="#03a9f4" font-weight="bold" transform="matrix(0.707 0.409 -0.707 0.409 0 0)" xml:space="preserve"><tspan x="8" dy="0">subnet-1</tspan></text><text font-family="Open Sans" y="36.5" font-size="25pt" fill="#03a9f4" font-weight="bold" transform="matrix(0.707 0.409 -0.707 0.409 0 0)" xml:space="preserve"><tspan x="8" dy="0">subnet-1</tspan></text></svg></g></g><g opacity="1"><g id="bda88844-936a-4807-a2e4-c0953ea9831d" transform="translate(0 0)"><svg x="368" y="712" overflow="visible" style="user-select:none"><text stroke="#ffffff" stroke-width="4" font-family="Open Sans" y="36.5" font-size="25pt" fill="#03a9f4" font-weight="bold" transform="matrix(0.707 0.409 -0.707 0.409 0 0)" xml:space="preserve"><tspan x="8" dy="0">subnet-2</tspan><tspan x="8" dy="1.1em"></tspan></text><text font-family="Open Sans" y="36.5" font-size="25pt" fill="#03a9f4" font-weight="bold" transform="matrix(0.707 0.409 -0.707 0.409 0 0)" xml:space="preserve"><tspan x="8" dy="0">subnet-2</tspan><tspan x="8" dy="1.1em"></tspan></text></svg></g></g><g opacity="1"><g id="adc284b0-d6dc-4258-9ab5-a385a1b44b09" transform="translate(0 0)"><svg x="-96" y="537" overflow="visible" style="user-select:none"><text stroke="#ffffff" stroke-width="4" font-family="Open Sans" y="36.5" font-size="25pt" fill="#ffc107" font-weight="bold" transform="matrix(0.707 0.409 -0.707 0.409 0 0)" xml:space="preserve"><tspan x="8" dy="0">us-east-1b</tspan><tspan x="8" dy="1.1em"></tspan></text><text font-family="Open Sans" y="36.5" font-size="25pt" fill="#ffc107" font-weight="bold" transform="matrix(0.707 0.409 -0.707 0.409 0 0)" xml:space="preserve"><tspan x="8" dy="0">us-east-1b</tspan><tspan x="8" dy="1.1em"></tspan></text></svg></g></g><g opacity="1"><g id="4443333d-794e-4055-aa57-941e6d9421ef" transform="translate(0 0)"><svg x="288" y="759" overflow="visible" style="user-select:none"><text stroke="#ffffff" stroke-width="4" font-family="Open Sans" y="36.5" font-size="25pt" fill="#ffc107" font-weight="bold" transform="matrix(0.707 0.409 -0.707 0.409 0 0)" xml:space="preserve"><tspan x="8" dy="0">us-east-1c</tspan><tspan x="8" dy="1.1em"></tspan></text><text font-family="Open Sans" y="36.5" font-size="25pt" fill="#ffc107" font-weight="bold" transform="matrix(0.707 0.409 -0.707 0.409 0 0)" xml:space="preserve"><tspan x="8" dy="0">us-east-1c</tspan><tspan x="8" dy="1.1em"></tspan></text></svg></g></g></g></g></svg>